<svg height="16.18" width="20" viewBox="0 0 7.425 6.007" xml:space="preserve" xmlns="http://www.w3.org/2000/svg">
    <path d="M7.175.813h-.52v-.54a.25.25 0 0 0-.212-.245A3.804 3.804 0 0 0 5.305.06c-.681.125-1.225.43-1.592.892C3.343.49 2.8.185 2.12.06A3.823 3.823 0 0 0 .981.028.25.25 0 0 0 .77.274V.81h-.52a.25.25 0 0 0-.25.252v4.695a.25.25 0 0 0 .332.235c.019-.006 1.886-.643 3.278-.009a.25.25 0 0 0 .207 0c1.388-.632 3.26.003 3.278.009a.25.25 0 0 0 .226-.031.25.25 0 0 0 .105-.204V1.063a.25.25 0 0 0-.25-.25ZM.5 5.424V1.311H.77V4.63a.25.25 0 0 0 .086.188.25.25 0 0 0 .2.058c.013-.002 1.095-.15 1.887.393C1.969 5.1.994 5.293.5 5.424Zm2.965-.381c-.349-.315-.803-.528-1.343-.625a3.908 3.908 0 0 0-.853-.059V.503c.478-.022 1.643.03 2.196.965zm.498-3.575C4.513.536 5.678.483 6.158.503v3.856a3.909 3.909 0 0 0-.854.058c-.54.098-.994.312-1.343.626Zm.52 3.8c.79-.543 1.875-.394 1.888-.393a.25.25 0 0 0 .285-.246V1.31h.272v4.113c-.495-.129-1.47-.323-2.444-.155Z" style="stroke-width:.0250015"/>
</svg>
